{"title":"David Attenborough's The Hunt - S01E08 - On The Hunt","uid":15613164,"size":421214714,"categoryP":"video","categoryS":"tv_shows","magnet":"?xt=urn:btih:e61e476bd2c74cbe43c70b87f44604d7ce716ceb&amp;dn=David+Attenborough%27s+The+Hunt+-+S01E08+-+On+The+Hunt&amp;tr=udp%3A%2F%2Ftracker.leechers-paradise.org%3A6969&amp;tr=udp%3A%2F%2Fzer0day.ch%3A1337&amp;tr=udp%3A%2F%2Fopen.demonii.com%3A1337&amp;tr=udp%3A%2F%2Ftracker.coppersurfer.tk%3A6969&amp;tr=udp%3A%2F%2Fexodus.desync.com%3A6969","seeders":21,"leechers":5,"uploader":"Bullrout","files":1,"time":1471803144,"description":"David Attenborough's The Hunt - S01E08 - On The Hunt\r\n\r\nWhat did it take to make The Hunt? This Making Of follows the crews as they capture some of the most memorable scenes from the series.\r\n\r\nComplete name                            : David Attenborough's The Hunt - S01E08 - On The Hunt.mp4\r\nFormat                                   : MPEG-4\r\nFormat profile                           : Base Media / Version 2\r\nCodec ID                                 : mp42 (mp42/isom/avc1)\r\nFile size                                : 402 MiB\r\nDuration                                 : 50mn 11s\r\nOverall bit rate mode                    : Variable\r\nOverall bit rate                         : 1 119 Kbps\r\n\r\nVideo\r\nID                                       : 2\r\nFormat                                   : AVC\r\nFormat/Info                              : Advanced Video Codec\r\nFormat profile                           :   \r\nFormat settings, CABAC                   : Yes\r\nFormat settings, ReFrames                : 3 frames\r\nCodec ID                                 : avc1\r\nCodec ID/Info                            : Advanced Video Coding\r\nDuration                                 : 50mn 11s\r\nBit rate mode                            : Variable\r\nBit rate                                 : 987 Kbps\r\nMaximum bit rate                         : 1 000 Kbps\r\nWidth                                    : 720 pixels\r\nHeight                                   : 404 pixels\r\nDisplay aspect ratio                     : 16:9\r\nOriginal display aspect ratio            : 16:9\r\nFrame rate mode                          : Constant\r\nFrame rate                               : 25.000 fps\r\nStandard                                 : PAL\r\nColor space                              : YUV\r\nChroma subsampling                       : 4:2:0\r\nBit depth                                : 8 bits\r\nScan type                                : Progressive\r\nBits/(Pixel*Frame)                       : 0.136\r\nStream size                              : 354 MiB (88%)\r\nWriting library                          : x264 core 112\r\nColor range                              : Limited\r\nColor primaries                          : BT.601 PAL\r\nTransfer characteristics                 : BT.470 System B, BT.470 System G\r\nMatrix coefficients                      : BT.601\r\n\r\nAudio\r\nID                                       : 1\r\nFormat                                   : AAC\r\nFormat/Info                              : Advanced Audio Codec\r\nFormat profile                           : LC\r\nCodec ID                                 : 40\r\nDuration                                 : 50mn 11s\r\nBit rate mode                            : Variable\r\nBit rate                                 : 128 Kbps\r\nMaximum bit rate                         : 576 Kbps\r\nChannel(s)                               : 2 channels\r\nChannel positions                        : Front: L R\r\nSampling rate                            : 48.0 KHz\r\nFrame rate                               : 46.875 fps (1024 spf)\r\nCompression mode                         : Lossy\r\nStream size                              : 46.0 MiB (11%)","torrent":{"xt":"urn:btih:e61e476bd2c74cbe43c70b87f44604d7ce716ceb","amp;dn":"David+Attenborough%27s+The+Hunt+-+S01E08+-+On+The+Hunt","amp;tr":["udp%3A%2F%2Ftracker.leechers-paradise.org%3A6969","udp%3A%2F%2Fzer0day.ch%3A1337","udp%3A%2F%2Fopen.demonii.com%3A1337","udp%3A%2F%2Ftracker.coppersurfer.tk%3A6969","udp%3A%2F%2Fexodus.desync.com%3A6969"],"infoHash":"e61e476bd2c74cbe43c70b87f44604d7ce716ceb","infoHashBuffer":{"type":"Buffer","data":[230,30,71,107,210,199,76,190,67,199,11,135,244,70,4,215,206,113,108,235]},"announce":[],"urlList":[]}}